<svg width="318" height="267" viewBox="0 0 318 267" fill="none" xmlns="http://www.w3.org/2000/svg">
<path d="M35.5176 147.478C38.0424 147.478 40.0891 145.43 40.0891 142.904C40.0891 140.378 38.0424 138.331 35.5176 138.331C32.9928 138.331 30.946 140.378 30.946 142.904C30.946 145.43 32.9928 147.478 35.5176 147.478Z" fill="#EF8354"/>
<path d="M55.5622 185.122C58.087 185.122 60.1337 183.074 60.1337 180.548C60.1337 178.022 58.087 175.975 55.5622 175.975C53.0374 175.975 50.9906 178.022 50.9906 180.548C50.9906 183.074 53.0374 185.122 55.5622 185.122Z" fill="#EF8354"/>
<path d="M40.0892 175.623C42.614 175.623 44.6607 173.575 44.6607 171.049C44.6607 168.523 42.614 166.476 40.0892 166.476C37.5643 166.476 35.5176 168.523 35.5176 171.049C35.5176 173.575 37.5643 175.623 40.0892 175.623Z" fill="#EF8354"/>
<path d="M223.054 256.892H145.241C145.241 256.892 143.664 233.748 152.996 233.485C162.329 233.222 161.277 243.742 172.975 229.277C184.674 214.812 198.869 215.601 200.709 224.149C202.55 232.696 197.161 239.534 207.019 237.43C216.877 235.326 231.072 240.849 223.054 256.892Z" fill="#EF8354"/>
<path d="M182.834 256.897L182.572 256.886C183.184 241.649 186.374 231.858 188.942 226.329C191.731 220.324 194.418 217.894 194.444 217.87L194.619 218.066C194.593 218.09 191.937 220.497 189.171 226.46C186.617 231.967 183.445 241.717 182.834 256.897Z" fill="#F2F2F2"/>
<path d="M210.997 256.928L210.744 256.855C213.783 246.42 220.939 239.832 221.011 239.766L221.188 239.961C216.441 244.687 212.94 250.517 210.997 256.928Z" fill="#F2F2F2"/>
<path d="M157.497 256.91L157.237 256.874C158.085 251.161 157.188 245.325 154.662 240.131C153.626 237.953 152.254 235.951 150.597 234.198L150.779 234.008C152.458 235.783 153.847 237.809 154.897 240.015C157.447 245.255 158.353 251.145 157.497 256.91Z" fill="#F2F2F2"/>
<path d="M233.615 257.243H136.849L136.826 256.916C136.771 256.1 135.536 236.857 141.768 229.991C142.387 229.265 143.15 228.677 144.009 228.265C144.868 227.853 145.804 227.625 146.757 227.596C150.819 227.481 153.372 229.003 155.431 230.225C159.312 232.528 161.876 234.05 171.198 222.523C181.297 210.036 192.194 207.349 198.458 208.843C202.505 209.808 205.294 212.537 206.111 216.329C206.884 219.919 206.637 223.293 206.44 226.004C206.228 228.905 206.061 231.196 207.251 232.234C208.245 233.1 210.23 233.179 213.495 232.482C220.137 231.064 229.405 232.277 234.057 238.29C236.56 241.525 238.532 247.406 233.712 257.049L233.615 257.243ZM137.509 256.54H233.18C236.771 249.251 236.883 243.093 233.501 238.721C229.234 233.205 220.281 231.753 213.642 233.17C210.094 233.927 207.98 233.802 206.789 232.764C205.333 231.495 205.512 229.049 205.738 225.953C205.933 223.287 206.175 219.969 205.423 216.477C204.666 212.96 202.068 210.427 198.294 209.527C192.23 208.08 181.639 210.733 171.745 222.966C162.041 234.965 159.118 233.231 155.072 230.83C152.988 229.593 150.621 228.19 146.777 228.299C145.919 228.327 145.077 228.534 144.304 228.906C143.531 229.279 142.845 229.81 142.289 230.464C136.688 236.634 137.372 253.938 137.509 256.54Z" fill="#CFCCE0"/>
<path d="M252.631 256.802H113.817V257.506H252.631V256.802Z" fill="#CFCCE0"/>
<path d="M104.976 182.089C105.099 182.944 105.104 183.813 104.99 184.67C104.967 184.864 104.937 185.055 104.903 185.243L104.903 185.245C104.495 187.272 103.68 189.195 102.508 190.898C102.431 191.008 102.387 191.066 102.387 191.066L102.223 190.94C100.921 189.9 99.7917 188.66 98.8775 187.266C98.7975 187.14 98.7173 187.012 98.6409 186.881C97.9615 185.771 97.5034 184.54 97.2921 183.256L97.2893 183.238C97.269 183.101 97.2514 182.964 97.2383 182.827C97.1312 181.628 97.2344 180.418 97.5431 179.254C97.5796 179.109 97.618 178.966 97.6594 178.825C98.1274 177.26 98.8354 175.777 99.7579 174.429C99.8346 174.318 99.8784 174.261 99.8784 174.261C99.8784 174.261 99.937 174.303 100.043 174.386C101.308 175.397 102.41 176.596 103.311 177.942C103.39 178.063 103.468 178.185 103.545 178.311C104.072 179.159 104.478 180.077 104.752 181.038C104.799 181.205 104.841 181.377 104.877 181.549C104.916 181.727 104.949 181.907 104.976 182.089Z" fill="#CFCCE0"/>
<path d="M147.62 199.89C148.174 200.554 148.633 201.291 148.986 202.08C149.068 202.257 149.142 202.435 149.212 202.614L149.213 202.615C149.929 204.555 150.244 206.62 150.139 208.685C150.132 208.819 150.124 208.891 150.124 208.891L149.919 208.87C148.265 208.668 146.653 208.206 145.144 207.499C145.009 207.434 144.874 207.367 144.74 207.295C143.58 206.707 142.544 205.9 141.691 204.918L141.679 204.904C141.59 204.798 141.503 204.69 141.42 204.581C140.7 203.616 140.153 202.533 139.805 201.379C139.76 201.237 139.718 201.095 139.679 200.953C139.257 199.375 139.082 197.741 139.16 196.109C139.167 195.975 139.174 195.903 139.174 195.903C139.174 195.903 139.246 195.908 139.38 195.923C140.987 196.119 142.555 196.562 144.027 197.235C144.158 197.296 144.289 197.359 144.42 197.426C145.313 197.871 146.141 198.439 146.878 199.113C147.006 199.231 147.131 199.355 147.252 199.483C147.379 199.613 147.502 199.749 147.62 199.89Z" fill="#CFCCE0"/>
<path d="M153.98 118.005L152.215 147.432C152.215 147.432 146.332 163.911 153.98 163.911C161.627 163.911 156.921 146.255 156.921 146.255L163.98 117.417L153.98 118.005Z" fill="#FFB9B9"/>
<path d="M211.043 114.474L212.808 143.901C212.808 143.901 218.69 160.38 211.043 160.38C203.395 160.38 208.101 142.724 208.101 142.724L201.042 113.886L211.043 114.474Z" fill="#FFB9B9"/>
<path d="M175.746 239.244L176.922 253.958C176.922 253.958 172.216 265.728 179.864 266.905C179.94 266.917 180.016 266.928 180.091 266.939C181.039 267.069 182.005 266.974 182.909 266.659C183.813 266.345 184.63 265.821 185.293 265.131C185.956 264.44 186.447 263.603 186.725 262.686C187.002 261.77 187.06 260.801 186.891 259.858L185.747 253.369C185.747 253.369 186.335 241.598 182.805 239.244C179.276 236.89 175.746 239.244 175.746 239.244Z" fill="#2F2E41"/>
<path d="M186.923 226.296C186.923 226.296 185.747 229.828 186.335 233.359C186.923 236.89 187.512 246.895 187.512 246.895C187.512 246.895 187.512 257.489 191.63 257.489C193.1 257.489 194.346 256.213 195.339 254.572C196.368 252.832 197.032 250.901 197.292 248.896C197.553 246.892 197.403 244.855 196.854 242.91L194.571 234.536V228.062L186.923 226.296Z" fill="#2F2E41"/>
<path d="M165.157 118.594C165.157 118.594 152.215 135.661 159.274 160.969C166.333 186.276 166.922 193.338 166.922 193.338L171.04 241.598C171.04 241.598 178.099 243.952 183.982 240.421L182.217 193.927V165.677L185.747 196.869V228.062C185.747 228.062 193.983 236.301 199.865 228.65L201.042 193.927C201.042 193.927 204.572 145.667 202.219 140.958C199.865 136.25 194.571 119.771 194.571 119.771L165.157 118.594Z" fill="#2F2E41"/>
<path d="M176.873 39.184C176.873 39.184 170.89 37.0464 167.044 45.5969C163.198 54.1473 157.215 63.5528 157.215 63.5528L160.634 64.4079C160.634 64.4079 161.488 58.4225 163.625 57.5675L162.77 65.2629C162.77 65.2629 188.411 74.2409 199.949 64.4079L199.521 61.4152C199.521 61.4152 201.231 61.8427 201.231 64.4079L202.513 63.1253C202.513 63.1253 201.231 60.5602 197.385 57.14C194.86 54.8951 193.993 50.6243 193.695 47.9541C193.471 45.7245 192.58 43.6144 191.137 41.9007C188.581 38.9373 183.924 35.7876 176.873 39.184Z" fill="#2F2E41"/>
<path d="M179.864 67.391C186.037 67.391 191.041 62.3846 191.041 56.2088C191.041 50.0331 186.037 45.0266 179.864 45.0266C173.691 45.0266 168.687 50.0331 168.687 56.2088C168.687 62.3846 173.691 67.391 179.864 67.391Z" fill="#FFB9B9"/>
<path d="M176.922 63.2713L173.393 77.3962L183.982 108L192.218 75.6306C192.218 75.6306 184.57 70.3338 186.335 63.2713L176.922 63.2713Z" fill="#FFB9B9"/>
<path d="M205.748 143.901C205.748 143.901 188.688 150.375 185.158 140.37C181.629 130.365 182.217 122.714 182.217 122.714C182.217 122.714 176.922 143.313 168.098 143.313C159.274 143.313 154.568 140.37 154.568 140.37C154.568 140.37 161.039 119.771 166.922 116.24C166.922 116.24 166.951 116.169 167.004 116.04C167.334 115.216 168.498 111.949 167.681 109.077C167.515 108.486 167.259 107.925 166.922 107.412C164.569 103.88 162.215 102.703 162.804 93.8753L158.097 77.3962L174.328 73.6531L182.805 100.349L190.524 74.2122L204.572 76.2192C204.572 76.2192 205.748 97.4065 199.865 105.058C198.94 106.263 198.239 107.624 197.795 109.077C196.771 112.326 197.012 115.745 197.565 118.476H197.571C197.94 120.338 198.513 122.154 199.277 123.891L205.748 143.901Z" fill="#CFCCE0"/>
<path d="M201.042 76.8077L204.572 76.2191C204.572 76.2191 206.042 75.9249 208.69 77.9847C212.07 80.6152 212.219 116.24 212.219 116.24L201.042 116.828V76.8077Z" fill="#CFCCE0"/>
<path d="M161.039 78.5733L158.098 77.3962C158.098 77.3962 156.921 76.8077 156.333 80.3389C155.744 83.8701 152.803 120.359 152.803 120.359L165.157 119.771V93.2868L161.039 78.5733Z" fill="#CFCCE0"/>
<path d="M166.936 57.8368C166.936 57.8368 170.354 53.1341 173.346 52.279C176.337 51.424 176.764 47.1488 176.764 47.1488C176.764 47.1488 184.456 55.6992 189.157 56.1267C193.858 56.5543 189.584 45.8662 189.584 45.8662L181.038 43.7286L172.918 44.5836L166.508 48.8589L166.936 57.8368Z" fill="#2F2E41"/>
<path d="M183.099 115.945C185.049 115.945 186.629 114.364 186.629 112.414C186.629 110.464 185.049 108.883 183.099 108.883C181.15 108.883 179.57 110.464 179.57 112.414C179.57 114.364 181.15 115.945 183.099 115.945Z" fill="#2F2E41"/>
<path d="M243.783 62.3044C240.735 53.7178 240.865 44.3231 244.148 35.824C247.431 27.3248 253.649 20.284 261.676 15.9783C269.702 11.6726 279.006 10.3872 287.898 12.3551C296.791 14.323 304.684 19.414 310.147 26.7048C315.609 33.9956 318.279 43.0035 317.673 52.0949C317.066 61.1863 313.223 69.7592 306.84 76.259C300.458 82.7588 291.958 86.755 282.883 87.5231C273.808 88.2911 264.758 85.7801 257.374 80.4453C256.355 82.2095 254.914 83.6933 253.18 84.7638C251.447 85.8343 249.475 86.458 247.442 86.5792C245.409 86.7004 243.377 86.3152 241.529 85.4582C239.681 84.6012 238.074 83.2991 236.852 81.6684C235.63 80.0377 234.832 78.1294 234.528 76.1143C234.224 74.0991 234.424 72.0401 235.111 70.1214C235.798 68.2028 236.949 66.4845 238.463 65.1203C239.976 63.7561 241.804 62.7886 243.783 62.3044Z" fill="#EF8354"/>
<path d="M265.35 52.3996C267.784 52.3996 269.757 50.4255 269.757 47.9903C269.757 45.5551 267.784 43.581 265.35 43.581C262.915 43.581 260.942 45.5551 260.942 47.9903C260.942 50.4255 262.915 52.3996 265.35 52.3996Z" fill="#CFCCE0"/>
<path d="M280.386 52.3996C282.82 52.3996 284.794 50.4255 284.794 47.9903C284.794 45.5551 282.82 43.581 280.386 43.581C277.952 43.581 275.979 45.5551 275.979 47.9903C275.979 50.4255 277.952 52.3996 280.386 52.3996Z" fill="#CFCCE0"/>
<path d="M295.423 52.3996C297.857 52.3996 299.831 50.4255 299.831 47.9903C299.831 45.5551 297.857 43.581 295.423 43.581C292.989 43.581 291.016 45.5551 291.016 47.9903C291.016 50.4255 292.989 52.3996 295.423 52.3996Z" fill="#CFCCE0"/>
<path d="M240.015 78.9181C237.192 78.1937 234.688 76.5566 232.891 74.2612C231.094 71.9659 230.106 69.1409 230.079 66.2256C230.053 63.3102 230.99 60.4678 232.745 58.1403C234.5 55.8127 236.974 54.1305 239.784 53.3551C236.669 44.3065 236.887 34.4427 240.398 25.5407C243.91 16.6388 250.483 9.28406 258.935 4.80173C267.387 0.319408 277.161 -0.995803 286.496 1.09307C295.831 3.18194 304.114 8.53755 309.851 16.1949C315.589 23.8523 318.404 33.308 317.79 42.8583C317.176 52.4085 313.173 61.4254 306.502 68.2843C299.831 75.1432 290.931 79.3932 281.406 80.2683C271.88 81.1435 262.355 78.5864 254.547 73.0578C253.061 75.452 250.851 77.3105 248.238 78.3642C245.626 79.4178 242.745 79.6118 240.015 78.9181ZM287.604 1.94721C280.662 0.166957 273.367 0.30938 266.499 2.35923C259.632 4.40907 253.451 8.28913 248.619 13.5839C243.787 18.8786 240.486 25.3886 239.068 32.4166C237.651 39.4446 238.171 46.726 240.574 53.4808L240.704 53.8478L240.326 53.9407C238.316 54.4325 236.458 55.4154 234.92 56.8015C233.382 58.1876 232.212 59.9336 231.514 61.8832C230.816 63.8328 230.613 65.9251 230.921 67.9728C231.23 70.0205 232.041 71.9596 233.283 73.6167C234.524 75.2737 236.157 76.5969 238.035 77.4678C239.913 78.3386 241.977 78.73 244.044 78.6068C246.11 78.4836 248.113 77.8497 249.875 76.7619C251.636 75.6741 253.1 74.1663 254.136 72.3735L254.331 72.0357L254.647 72.2642C259.357 75.6693 264.76 77.993 270.471 79.0695C276.182 80.146 282.059 79.9487 287.685 78.4918C293.311 77.0349 298.546 74.3543 303.018 70.641C307.489 66.9276 311.087 62.2731 313.554 57.0093C316.021 51.7454 317.297 46.0018 317.291 40.188C317.285 34.3742 315.997 28.6333 313.518 23.3747C311.04 18.1161 307.433 13.4693 302.953 9.76547C298.474 6.06167 293.233 3.39215 287.604 1.94721Z" fill="#CFCCE0"/>
<path d="M41.5473 235.966C41.4666 235.834 39.5637 232.656 38.904 226.055C38.2989 219.999 38.688 209.792 43.9794 195.553C54.0037 168.58 41.6692 146.816 41.5432 146.599L42.1517 146.246C42.1837 146.301 45.3665 151.85 47.2467 160.685C49.731 172.4 48.8264 184.58 44.6388 195.799C34.6316 222.727 42.0714 235.474 42.1476 235.6L41.5473 235.966Z" fill="#CFCCE0"/>
<path d="M37.6275 145.367C36.6538 145.367 35.702 145.078 34.8923 144.537C34.0827 143.996 33.4517 143.226 33.0791 142.326C32.7064 141.426 32.609 140.436 32.7989 139.481C32.9889 138.525 33.4578 137.647 34.1463 136.959C34.8348 136.27 35.7121 135.801 36.6671 135.611C37.6221 135.421 38.612 135.518 39.5116 135.891C40.4112 136.264 41.1801 136.895 41.7211 137.705C42.262 138.515 42.5508 139.467 42.5508 140.441C42.5493 141.747 42.0302 142.999 41.1072 143.923C40.1842 144.846 38.9328 145.365 37.6275 145.367ZM37.6275 136.22C36.7929 136.22 35.9771 136.467 35.2831 136.931C34.5891 137.395 34.0483 138.054 33.7289 138.826C33.4095 139.597 33.3259 140.446 33.4887 141.265C33.6515 142.084 34.0535 142.836 34.6436 143.427C35.2338 144.017 35.9857 144.419 36.8043 144.582C37.6229 144.745 38.4713 144.661 39.2424 144.342C40.0135 144.022 40.6726 143.481 41.1363 142.787C41.6 142.093 41.8475 141.276 41.8475 140.441C41.8462 139.322 41.4012 138.249 40.6101 137.458C39.819 136.666 38.7463 136.221 37.6275 136.22Z" fill="#CFCCE0"/>
<path d="M52.0456 161.902C54.5704 161.902 56.6171 159.854 56.6171 157.328C56.6171 154.803 54.5704 152.755 52.0456 152.755C49.5208 152.755 47.474 154.803 47.474 157.328C47.474 159.854 49.5208 161.902 52.0456 161.902Z" fill="#CFCCE0"/>
<path d="M42.1991 173.512C41.2254 173.512 40.2735 173.223 39.4639 172.682C38.6543 172.141 38.0233 171.371 37.6506 170.471C37.278 169.571 37.1805 168.581 37.3705 167.626C37.5604 166.67 38.0293 165.793 38.7179 165.104C39.4064 164.415 40.2836 163.946 41.2386 163.756C42.1936 163.566 43.1835 163.663 44.0831 164.036C44.9828 164.409 45.7516 165.04 46.2926 165.85C46.8336 166.66 47.1223 167.612 47.1223 168.587C47.1209 169.892 46.6017 171.144 45.6787 172.068C44.7558 172.991 43.5044 173.51 42.1991 173.512ZM42.1991 164.365C41.3645 164.365 40.5486 164.612 39.8547 165.076C39.1607 165.54 38.6198 166.199 38.3004 166.971C37.981 167.742 37.8975 168.591 38.0603 169.41C38.2231 170.229 38.625 170.981 39.2152 171.572C39.8053 172.162 40.5573 172.564 41.3758 172.727C42.1944 172.89 43.0429 172.806 43.814 172.487C44.5851 172.167 45.2441 171.626 45.7078 170.932C46.1715 170.238 46.419 169.421 46.419 168.587C46.4178 167.467 45.9728 166.394 45.1817 165.603C44.3905 164.811 43.3179 164.366 42.1991 164.365Z" fill="#CFCCE0"/>
<path d="M54.1555 183.011C53.1818 183.011 52.2299 182.722 51.4203 182.181C50.6107 181.64 49.9797 180.87 49.6071 179.97C49.2344 179.07 49.1369 178.08 49.3269 177.125C49.5169 176.169 49.9858 175.292 50.6743 174.603C51.3628 173.914 52.24 173.445 53.1951 173.255C54.1501 173.065 55.14 173.162 56.0396 173.535C56.9392 173.908 57.7081 174.539 58.249 175.349C58.79 176.159 59.0788 177.111 59.0788 178.085C59.0773 179.391 58.5581 180.643 57.6352 181.567C56.7122 182.49 55.4608 183.009 54.1555 183.011ZM54.1555 173.864C53.3209 173.864 52.505 174.111 51.8111 174.575C51.1171 175.039 50.5762 175.698 50.2568 176.47C49.9374 177.241 49.8539 178.09 50.0167 178.909C50.1795 179.728 50.5814 180.48 51.1716 181.071C51.7618 181.661 52.5137 182.063 53.3323 182.226C54.1508 182.389 54.9993 182.305 55.7704 181.986C56.5415 181.666 57.2006 181.125 57.6642 180.431C58.1279 179.737 58.3754 178.92 58.3754 178.085C58.3742 176.966 57.9292 175.893 57.1381 175.102C56.347 174.31 55.2743 173.865 54.1555 173.864Z" fill="#CFCCE0"/>
<path d="M226.82 219.951C229.345 219.951 231.392 217.904 231.392 215.378C231.392 212.852 229.345 210.804 226.82 210.804C224.295 210.804 222.249 212.852 222.249 215.378C222.249 217.904 224.295 219.951 226.82 219.951Z" fill="#EF8354"/>
<path d="M225.414 217.84C224.44 217.84 223.488 217.552 222.678 217.01C221.869 216.469 221.238 215.7 220.865 214.8C220.493 213.9 220.395 212.91 220.585 211.954C220.775 210.999 221.244 210.121 221.932 209.432C222.621 208.743 223.498 208.274 224.453 208.084C225.408 207.894 226.398 207.992 227.298 208.365C228.197 208.737 228.966 209.369 229.507 210.179C230.048 210.989 230.337 211.941 230.337 212.915C230.335 214.221 229.816 215.473 228.893 216.396C227.97 217.32 226.719 217.839 225.414 217.84ZM225.414 208.693C224.579 208.693 223.763 208.941 223.069 209.405C222.375 209.869 221.834 210.528 221.515 211.299C221.196 212.071 221.112 212.92 221.275 213.739C221.438 214.558 221.84 215.31 222.43 215.9C223.02 216.491 223.772 216.893 224.59 217.056C225.409 217.219 226.257 217.135 227.029 216.815C227.8 216.496 228.459 215.955 228.922 215.261C229.386 214.566 229.634 213.75 229.634 212.915C229.632 211.796 229.187 210.723 228.396 209.931C227.605 209.14 226.532 208.694 225.414 208.693Z" fill="#CFCCE0"/>
<path d="M96.3546 245.634C98.8794 245.634 100.926 243.586 100.926 241.06C100.926 238.534 98.8794 236.486 96.3546 236.486C93.8298 236.486 91.7831 238.534 91.7831 241.06C91.7831 243.586 93.8298 245.634 96.3546 245.634Z" fill="#EF8354"/>
<path d="M94.9481 243.523C93.9743 243.523 93.0225 243.234 92.2129 242.693C91.4032 242.151 90.7722 241.382 90.3996 240.482C90.0269 239.582 89.9295 238.592 90.1194 237.636C90.3094 236.681 90.7783 235.803 91.4668 235.115C92.1553 234.426 93.0326 233.957 93.9876 233.767C94.9426 233.577 95.9325 233.674 96.8321 234.047C97.7317 234.42 98.5006 235.051 99.0416 235.861C99.5825 236.671 99.8713 237.623 99.8713 238.597C99.8698 239.903 99.3507 241.155 98.4277 242.079C97.5047 243.002 96.2533 243.521 94.9481 243.523ZM94.9481 234.376C94.1134 234.376 93.2976 234.623 92.6036 235.087C91.9096 235.551 91.3688 236.21 91.0494 236.982C90.73 237.753 90.6464 238.602 90.8092 239.421C90.9721 240.24 91.374 240.992 91.9641 241.583C92.5543 242.173 93.3062 242.575 94.1248 242.738C94.9434 242.901 95.7919 242.817 96.5629 242.498C97.334 242.178 97.9931 241.637 98.4568 240.943C98.9205 240.249 99.168 239.432 99.168 238.597C99.1667 237.478 98.7217 236.405 97.9306 235.613C97.1395 234.822 96.0669 234.377 94.9481 234.376Z" fill="#CFCCE0"/>
<path d="M38.6825 197.435C41.2073 197.435 43.2541 195.388 43.2541 192.862C43.2541 190.336 41.2073 188.288 38.6825 188.288C36.1577 188.288 34.1109 190.336 34.1109 192.862C34.1109 195.388 36.1577 197.435 38.6825 197.435Z" fill="#CFCCE0"/>
<path d="M44.3091 236.135C44.3091 236.135 39.7375 224.877 53.4522 216.433L44.3091 236.135Z" fill="#CFCCE0"/>
<path d="M38.6868 235.93C38.6868 235.93 36.6062 223.958 20.503 224.061L38.6868 235.93Z" fill="#CFCCE0"/>
<path d="M73.8484 235.431H0V236.135H73.8484V235.431Z" fill="#CFCCE0"/>
</svg>
