<svg width="122" height="111" viewBox="0 0 122 111" fill="none" xmlns="http://www.w3.org/2000/svg">
<path d="M30.936 40.064H14.168L11.48 48H0.024L16.28 3.072H28.952L45.208 48H33.624L30.936 40.064ZM28.12 31.616L22.552 15.168L17.048 31.616H28.12ZM64.6835 48.512C61.5688 48.512 58.7955 47.9787 56.3635 46.912C53.9315 45.8453 52.0115 44.3947 50.6035 42.56C49.1955 40.6827 48.4062 38.592 48.2355 36.288H59.0515C59.1795 37.5253 59.7555 38.528 60.7795 39.296C61.8035 40.064 63.0622 40.448 64.5555 40.448C65.9208 40.448 66.9662 40.192 67.6915 39.68C68.4595 39.1253 68.8435 38.4213 68.8435 37.568C68.8435 36.544 68.3102 35.7973 67.2435 35.328C66.1768 34.816 64.4488 34.2613 62.0595 33.664C59.4995 33.0667 57.3662 32.448 55.6595 31.808C53.9528 31.1253 52.4808 30.08 51.2435 28.672C50.0062 27.2213 49.3875 25.28 49.3875 22.848C49.3875 20.8 49.9422 18.944 51.0515 17.28C52.2035 15.5733 53.8675 14.2293 56.0435 13.248C58.2622 12.2667 60.8862 11.776 63.9155 11.776C68.3955 11.776 71.9155 12.8853 74.4755 15.104C77.0782 17.3227 78.5715 20.2667 78.9555 23.936H68.8435C68.6728 22.6987 68.1182 21.7173 67.1795 20.992C66.2835 20.2667 65.0888 19.904 63.5955 19.904C62.3155 19.904 61.3342 20.16 60.6515 20.672C59.9688 21.1413 59.6275 21.8027 59.6275 22.656C59.6275 23.68 60.1608 24.448 61.2275 24.96C62.3368 25.472 64.0435 25.984 66.3475 26.496C68.9928 27.1787 71.1475 27.8613 72.8115 28.544C74.4755 29.184 75.9262 30.2507 77.1635 31.744C78.4435 33.1947 79.1048 35.1573 79.1475 37.632C79.1475 39.7227 78.5502 41.6 77.3555 43.264C76.2035 44.8853 74.5182 46.1653 72.2995 47.104C70.1235 48.0427 67.5848 48.512 64.6835 48.512ZM107.667 48L96.787 33.024V48H85.843V0.639999H96.787V26.816L107.603 12.288H121.107L106.259 30.208L121.235 48H107.667Z" fill="#EF8354"/>
<path d="M8.472 70.576C6.552 70.576 4.97333 70.0213 3.736 68.912C2.54133 67.76 1.944 66.352 1.944 64.688C1.944 62.9813 2.54133 61.5733 3.736 60.464C4.97333 59.312 6.552 58.736 8.472 58.736C10.3493 58.736 11.8853 59.312 13.08 60.464C14.3173 61.5733 14.936 62.9813 14.936 64.688C14.936 66.352 14.3173 67.76 13.08 68.912C11.8853 70.0213 10.3493 70.576 8.472 70.576ZM13.912 74.288V110H2.968V74.288H13.912ZM41.747 100.72V110H36.179C32.211 110 29.1177 109.04 26.899 107.12C24.6803 105.157 23.571 101.979 23.571 97.584V83.376H19.219V74.288H23.571V65.584H34.515V74.288H41.683V83.376H34.515V97.712C34.515 98.7787 34.771 99.5467 35.283 100.016C35.795 100.485 36.6483 100.72 37.843 100.72H41.747ZM62.243 63.472L60.963 94.128H51.683L50.403 63.472H62.243ZM56.483 110.512C54.563 110.512 52.9843 109.957 51.747 108.848C50.5523 107.696 49.955 106.288 49.955 104.624C49.955 102.917 50.5523 101.488 51.747 100.336C52.9843 99.184 54.563 98.608 56.483 98.608C58.3603 98.608 59.8963 99.184 61.091 100.336C62.3283 101.488 62.947 102.917 62.947 104.624C62.947 106.288 62.3283 107.696 61.091 108.848C59.8963 109.957 58.3603 110.512 56.483 110.512Z" fill="#2D3142"/>
</svg>
